HIERARCHY
ROOT Hips
{
	OFFSET 0.000000 0.000000 0.000000
	CHANNELS 6 Xposition Yposition Zposition Xrotation Yrotation Zrotation
	JOINT LeftUpLeg_virtual
	{
		OFFSET 0.000000 0.000000 0.000000
		CHANNELS 3 Xrotation Yrotation Zrotation
		JOINT LeftUpLeg
		{
			OFFSET 11.394100 -6.187798 -0.413800
			CHANNELS 3 Xrotation Yrotation Zrotation
			JOINT LeftLeg
			{
				OFFSET 0.430247 -32.302673 3.732800
				CHANNELS 3 Xrotation Yrotation Zrotation
				JOINT LeftFoot
				{
					OFFSET -0.430247 -48.264931 -6.423300
					CHANNELS 3 Xrotation Yrotation Zrotation
					JOINT LeftToeBase
					{
						OFFSET 4.230900 -16.068199 23.438400
						CHANNELS 3 Xrotation Yrotation Zrotation
						JOINT LeftToe_End
						{
							OFFSET 4.510700 0.695400 19.974600
							CHANNELS 3 Xrotation Yrotation Zrotation
							End Site
							{
								OFFSET 0 0 0
							}
						}
					}
				}
			}
		}
	}
	JOINT RightUpLeg_virtual
	{
		OFFSET 0.000000 0.000000 0.000000
		CHANNELS 3 Xrotation Yrotation Zrotation
		JOINT RightUpLeg
		{
			OFFSET -11.333700 -6.187798 -0.413800
			CHANNELS 3 Xrotation Yrotation Zrotation
			JOINT RightLeg
			{
				OFFSET -0.430392 -32.302628 3.733000
				CHANNELS 3 Xrotation Yrotation Zrotation
				JOINT RightFoot
				{
					OFFSET 0.430392 -48.264973 -6.423500
					CHANNELS 3 Xrotation Yrotation Zrotation
					JOINT RightToeBase
					{
						OFFSET -4.230900 -16.068199 23.438400
						CHANNELS 3 Xrotation Yrotation Zrotation
						JOINT RightToe_End
						{
							OFFSET -4.510700 0.695400 19.974600
							CHANNELS 3 Xrotation Yrotation Zrotation
							End Site
							{
								OFFSET 0 0 0
							}
						}
					}
				}
			}
		}
	}
	JOINT Spine_virtual
	{
		OFFSET 0.000000 0.000000 0.000000
		CHANNELS 3 Xrotation Yrotation Zrotation
		JOINT Spine
		{
			OFFSET -0.002400 12.777504 0.315300
			CHANNELS 3 Xrotation Yrotation Zrotation
			JOINT Spine1
			{
				OFFSET -0.002067 5.816869 0.032633
				CHANNELS 3 Xrotation Yrotation Zrotation
				JOINT Spine1_split
				{
					OFFSET -0.002067 5.816869 0.032633
					CHANNELS 3 Xrotation Yrotation Zrotation
					JOINT Spine2
					{
						OFFSET -0.002067 5.816869 0.032633
						CHANNELS 3 Xrotation Yrotation Zrotation
						JOINT Neck_virtual
						{
							OFFSET 0.000000 0.000000 0.000000
							CHANNELS 3 Xrotation Yrotation Zrotation
							JOINT Neck
							{
								OFFSET -0.003700 21.199493 -0.826900
								CHANNELS 3 Xrotation Yrotation Zrotation
								JOINT Head
								{
									OFFSET 0.000000 20.442200 4.834800
									CHANNELS 3 Xrotation Yrotation Zrotation
									JOINT HeadTop_End
									{
										OFFSET 0.000000 34.668396 4.968400
										CHANNELS 3 Xrotation Yrotation Zrotation
										End Site
										{
											OFFSET 0 0 0
										}
									}
								}
							}
						}
						JOINT LeftShoulder_virtual
						{
							OFFSET 0.000000 0.000000 0.000000
							CHANNELS 3 Xrotation Yrotation Zrotation
							JOINT LeftShoulder
							{
								OFFSET 3.288150 8.794197 -1.372250
								CHANNELS 3 Xrotation Yrotation Zrotation
								JOINT LeftShoulder_split
								{
									OFFSET 3.288150 8.794197 -1.372250
									CHANNELS 3 Xrotation Yrotation Zrotation
									JOINT LeftArm
									{
										OFFSET 11.953299 -2.279007 -0.146200
										CHANNELS 3 Xrotation Yrotation Zrotation
										JOINT LeftForeArm
										{
											OFFSET 18.448900 0.000000 0.000000
											CHANNELS 3 Xrotation Yrotation Zrotation
											JOINT LeftHand
											{
												OFFSET 29.527798 0.000000 0.000000
												CHANNELS 3 Xrotation Yrotation Zrotation
												End Site
												{
													OFFSET 0 0 0
												}
											}
										}
									}
								}
							}
						}
						JOINT RightShoulder_virtual
						{
							OFFSET 0.000000 0.000000 0.000000
							CHANNELS 3 Xrotation Yrotation Zrotation
							JOINT RightShoulder
							{
								OFFSET -3.249400 8.794197 -1.372250
								CHANNELS 3 Xrotation Yrotation Zrotation
								JOINT RightShoulder_split
								{
									OFFSET -3.249400 8.794197 -1.372250
									CHANNELS 3 Xrotation Yrotation Zrotation
									JOINT RightArm
									{
										OFFSET -11.953299 -2.279007 -0.146200
										CHANNELS 3 Xrotation Yrotation Zrotation
										JOINT RightForeArm
										{
											OFFSET -18.448900 0.000000 0.000000
											CHANNELS 3 Xrotation Yrotation Zrotation
											JOINT RightHand
											{
												OFFSET -29.527802 0.000000 0.000000
												CHANNELS 3 Xrotation Yrotation Zrotation
												End Site
												{
													OFFSET 0 0 0
												}
											}
										}
									}
								}
							}
						}
					}
				}
			}
		}
	}
}
MOTION
Frames: 10
Frame Time: 0.03333333
-0.719632 60.148960 -0.493153 0.000000 0.000000 0.000000 177.736685 -7.284517 171.589884 -89.849506 -14.726289 10.164126 99.777808 7.323990 1.502015 -4.969407 0.991577 -13.797257 -11.303885 -0.393845 1.315639 0.000000 0.000000 0.000000 177.256851 -3.998367 172.055771 -68.628443 19.948577 -21.852055 99.210403 -1.175242 -0.946514 -14.966177 -4.279268 31.425031 -2.484962 -1.590091 -0.150770 0.000000 0.000000 0.000000 178.114217 -5.591300 168.711191 6.569025 4.464148 -3.594581 8.033238 7.147605 -3.912175 0.562904 -3.586328 0.756877 0.000000 0.000000 0.000000 7.886157 6.700745 -3.728976 -4.908931 23.765554 7.296508 6.847318 33.241315 -24.273123 0.000000 0.000000 0.000000 8.451002 6.956735 -3.964557 0.899094 -13.717736 -10.501433 -3.322108 -1.453948 -3.970033 2.702256 2.817839 -31.510361 36.758026 -39.781931 1.136286 0.000000 0.000000 0.000000 7.972824 7.012235 -4.279838 5.196652 -18.381315 13.059929 0.661045 1.491979 -1.335466 13.393973 -12.140962 60.663732 34.428163 48.956119 -8.737962 0.000000 0.000000 0.000000 
-0.727692 60.151649 -0.503971 0.000000 0.000000 0.000000 177.683191 -7.309607 171.570158 -89.856172 -14.723627 10.162752 99.748574 7.312166 1.507485 -5.002328 0.982237 -13.788566 -11.290023 -0.394279 1.318624 0.000000 0.000000 0.000000 177.202346 -4.017388 172.044187 -68.675093 19.909516 -21.893818 99.228421 -1.175262 -0.937285 -14.969043 -4.270801 31.402683 -2.472178 -1.586841 -0.143353 0.000000 0.000000 0.000000 178.057349 -5.609611 168.692340 6.548891 4.466756 -3.588711 7.993555 7.143512 -3.916623 0.559619 -3.590985 0.755731 0.000000 0.000000 0.000000 7.839532 6.697532 -3.732026 -4.969153 23.772029 7.294817 6.948559 33.214110 -24.269733 0.000000 0.000000 0.000000 8.415538 6.952582 -3.968722 0.897162 -13.746681 -10.501796 -3.300253 -1.454938 -3.964483 2.756575 2.841015 -31.466559 36.745724 -39.883923 1.128430 0.000000 0.000000 0.000000 7.936185 7.008898 -4.286664 5.202512 -18.405019 13.010272 0.651086 1.483414 -1.342206 13.393605 -12.133268 60.763863 34.447991 48.889896 -8.766805 0.000000 0.000000 0.000000 
-0.733049 60.155117 -0.513725 0.000000 0.000000 0.000000 177.637484 -7.339706 171.545324 -89.860899 -14.734181 10.157442 99.722135 7.301695 1.507302 -5.024489 0.979216 -13.774233 -11.285685 -0.392445 1.313583 0.000000 0.000000 0.000000 177.155641 -4.043244 172.030158 -68.712311 19.872330 -21.930605 99.244691 -1.180302 -0.927528 -14.980789 -4.263519 31.376168 -2.437603 -1.584002 -0.135906 0.000000 0.000000 0.000000 178.006792 -5.633535 168.669582 6.526753 4.472943 -3.580383 7.960099 7.143452 -3.920862 0.549638 -3.596242 0.758509 0.000000 0.000000 0.000000 7.799709 6.697853 -3.737055 -4.995564 23.779430 7.291246 7.039362 33.195437 -24.282630 0.000000 0.000000 0.000000 8.387521 6.951552 -3.974082 0.895618 -13.785133 -10.501762 -3.276180 -1.448286 -3.956222 2.809562 2.886005 -31.411436 36.732873 -40.009124 1.128865 0.000000 0.000000 0.000000 7.905158 7.009083 -4.294251 5.207161 -18.434534 12.962691 0.640146 1.477914 -1.349959 13.389399 -12.127286 60.868570 34.458253 48.812814 -8.787662 0.000000 0.000000 0.000000 
-0.734882 60.156738 -0.521633 0.000000 0.000000 0.000000 177.600505 -7.375925 171.516951 -89.869061 -14.760570 10.146458 99.703400 7.289400 1.504678 -5.027459 0.978251 -13.758290 -11.293717 -0.388579 1.301428 0.000000 0.000000 0.000000 177.117884 -4.075926 172.012905 -68.741148 19.837830 -21.963199 99.262190 -1.189062 -0.917551 -14.991159 -4.255955 31.357583 -2.396731 -1.581399 -0.131505 0.000000 0.000000 0.000000 177.963762 -5.665334 168.643941 6.506956 4.482727 -3.569807 7.934877 7.148077 -3.922487 0.538109 -3.591571 0.757562 0.000000 0.000000 0.000000 7.767703 6.702529 -3.741220 -4.984004 23.786448 7.279525 7.117452 33.185120 -24.313585 0.000000 0.000000 0.000000 8.368731 6.954001 -3.977845 0.894774 -13.836210 -10.501391 -3.254717 -1.430772 -3.949611 2.859468 2.959205 -31.348140 36.719698 -40.154426 1.137516 0.000000 0.000000 0.000000 7.881714 7.013574 -4.299590 5.211746 -18.464742 12.916398 0.633823 1.479820 -1.362416 13.391294 -12.119467 60.978419 34.452656 48.712028 -8.795354 0.000000 0.000000 0.000000 
-0.733431 60.152905 -0.528297 0.000000 0.000000 0.000000 177.571149 -7.421407 171.487431 -89.885925 -14.801346 10.126516 99.695825 7.271860 1.503300 -5.014562 0.974952 -13.744605 -11.308594 -0.383560 1.284630 0.000000 0.000000 0.000000 177.089156 -4.115756 171.992756 -68.761946 19.809697 -21.991213 99.286184 -1.198528 -0.910194 -14.996155 -4.247228 31.355909 -2.362709 -1.579113 -0.132251 0.000000 0.000000 0.000000 177.929720 -5.707815 168.617385 6.494158 4.495359 -3.558313 7.921081 7.157839 -3.919022 0.523712 -3.582405 0.757182 0.000000 0.000000 0.000000 7.745499 6.711821 -3.741876 -4.933032 23.793876 7.254226 7.184709 33.184956 -24.367046 0.000000 0.000000 0.000000 8.360558 6.959743 -3.976682 0.894509 -13.900422 -10.503374 -3.239201 -1.403636 -3.943035 2.902204 3.060007 -31.279944 36.707165 -40.325741 1.156947 0.000000 0.000000 0.000000 7.867563 7.022245 -4.299713 5.216579 -18.494103 12.866502 0.633483 1.487311 -1.381998 13.401378 -12.106116 61.095673 34.429877 48.588210 -8.791893 0.000000 0.000000 0.000000 
-0.729437 60.140923 -0.533775 0.000000 0.000000 0.000000 177.548814 -7.478743 171.458676 -89.915875 -14.852192 10.092561 99.700586 7.248538 1.505370 -4.993049 0.967098 -13.736470 -11.321728 -0.378287 1.266617 0.000000 0.000000 0.000000 177.067696 -4.164687 171.970339 -68.772813 19.792923 -22.013737 99.321148 -1.209467 -0.906167 -15.003042 -4.241246 31.369990 -2.339857 -1.577268 -0.136232 0.000000 0.000000 0.000000 177.905227 -5.760970 168.590229 6.491986 4.509566 -3.547266 7.921522 7.171973 -3.909346 0.514867 -3.570498 0.751508 0.000000 0.000000 0.000000 7.736729 6.724867 -3.737398 -4.844672 23.801077 7.211373 7.247454 33.197465 -24.448240 0.000000 0.000000 0.000000 8.365149 6.968572 -3.968555 0.894736 -13.976223 -10.508707 -3.228614 -1.372444 -3.935626 2.928892 3.181119 -31.208022 36.695581 -40.531230 1.189103 0.000000 0.000000 0.000000 7.865350 7.034578 -4.292713 5.222338 -18.524332 12.809323 0.633482 1.496627 -1.409917 13.415603 -12.090132 61.218951 34.392810 48.453857 -8.784242 0.000000 0.000000 0.000000 
-0.725231 60.119186 -0.537800 0.000000 0.000000 0.000000 177.532189 -7.549306 171.433787 -89.959117 -14.906352 10.041309 99.714963 7.220070 1.512702 -4.973732 0.955594 -13.736035 -11.329329 -0.373845 1.252476 0.000000 0.000000 0.000000 177.052054 -4.223844 171.946310 -68.771617 19.791837 -22.030316 99.368010 -1.225639 -0.903421 -15.019948 -4.244764 31.389511 -2.325249 -1.577188 -0.140182 0.000000 0.000000 0.000000 177.890242 -5.825688 168.564137 6.501681 4.524348 -3.538504 7.937026 7.189175 -3.894093 0.510301 -3.554347 0.744426 0.000000 0.000000 0.000000 7.744776 6.740988 -3.728017 -4.720141 23.808598 7.153601 7.315157 33.226480 -24.563780 0.000000 0.000000 0.000000 8.383558 6.979580 -3.953489 0.895055 -14.058760 -10.518070 -3.219126 -1.342651 -3.921821 2.928792 3.309095 -31.135984 36.677822 -40.764697 1.228711 0.000000 0.000000 0.000000 7.876171 7.049571 -4.278763 5.229364 -18.560889 12.742015 0.628828 1.503645 -1.446649 13.423299 -12.068167 61.347127 34.346156 48.320245 -8.779395 0.000000 0.000000 0.000000 
-0.721509 60.089821 -0.542217 0.000000 0.000000 0.000000 177.520660 -7.631653 171.412927 -90.008731 -14.956014 9.973307 99.735344 7.190565 1.522632 -4.966730 0.944923 -13.741903 -11.331599 -0.371125 1.245802 0.000000 0.000000 0.000000 177.041017 -4.293958 171.924440 -68.756475 19.810293 -22.041555 99.423922 -1.248146 -0.901872 -15.049338 -4.259296 31.408936 -2.314444 -1.578779 -0.142861 0.000000 0.000000 0.000000 177.884463 -5.898920 168.540915 6.520905 4.538839 -3.533358 7.967189 7.208610 -3.875820 0.511984 -3.544717 0.738689 0.000000 0.000000 0.000000 7.771128 6.759594 -3.716540 -4.567336 23.814826 7.089326 7.396442 33.272167 -24.715702 0.000000 0.000000 0.000000 8.416590 6.992390 -3.933949 0.895692 -14.143764 -10.530977 -3.210878 -1.313679 -3.902975 2.894633 3.428222 -31.065029 36.644682 -40.999713 1.265021 0.000000 0.000000 0.000000 7.899780 7.066646 -4.260468 5.237626 -18.610404 12.665219 0.620935 1.514936 -1.486006 13.418209 -12.032862 61.479865 34.290797 48.185492 -8.777201 0.000000 0.000000 0.000000 
-0.719215 60.057472 -0.545563 0.000000 0.000000 0.000000 177.515373 -7.719508 171.395893 -90.055785 -14.996396 9.892560 99.757119 7.165745 1.531731 -4.970009 0.940329 -13.750412 -11.333469 -0.370011 1.246677 0.000000 0.000000 0.000000 177.035307 -4.373759 171.905179 -68.727822 19.849809 -22.047465 99.476726 -1.275438 -0.903530 -15.085439 -4.281079 31.437110 -2.314175 -1.581938 -0.145742 0.000000 0.000000 0.000000 177.887086 -5.977948 168.522214 6.546531 4.552197 -3.532729 8.008925 7.228999 -3.858200 0.517430 -3.538102 0.736975 0.000000 0.000000 0.000000 7.813500 6.779794 -3.705954 -4.398045 23.817413 7.031558 7.496387 33.333007 -24.901203 0.000000 0.000000 0.000000 8.463142 7.006424 -3.914406 0.897339 -14.223214 -10.545883 -3.201747 -1.287435 -3.878774 2.829243 3.521624 -31.001348 36.584293 -41.197819 1.284993 0.000000 0.000000 0.000000 7.935971 7.085278 -4.241866 5.248036 -18.679756 12.583428 0.613295 1.537071 -1.521537 13.398038 -11.970413 61.615676 34.223373 48.034395 -8.770238 0.000000 0.000000 0.000000 
-0.717850 60.028976 -0.548172 0.000000 0.000000 0.000000 177.517682 -7.808055 171.381508 -90.091705 -15.024867 9.809407 99.774871 7.149371 1.536277 -4.979004 0.945433 -13.757196 -11.339092 -0.369909 1.252462 0.000000 0.000000 0.000000 177.037260 -4.459583 171.888582 -68.683720 19.904973 -22.047958 99.514777 -1.304583 -0.909842 -15.120500 -4.304268 31.480823 -2.324313 -1.586352 -0.150069 0.000000 0.000000 0.000000 177.898629 -6.058998 168.509168 6.574142 4.564470 -3.536243 8.058739 7.249833 -3.844239 0.520678 -3.533132 0.738938 0.000000 0.000000 0.000000 7.867189 6.801616 -3.699547 -4.223789 23.813499 6.994327 7.614770 33.406196 -25.110982 0.000000 0.000000 0.000000 8.521153 7.021372 -3.898467 0.900506 -14.286754 -10.561393 -3.190420 -1.261627 -3.851028 2.743915 3.570309 -30.953113 36.494025 -41.323327 1.280835 0.000000 0.000000 0.000000 7.982329 7.104668 -4.227147 5.260362 -18.773367 12.501648 0.611837 1.572760 -1.548841 13.359344 -11.868394 61.750641 34.138955 47.848364 -8.748003 0.000000 0.000000 0.000000 
